<mxfile host="app.diagrams.net" modified="2020-12-16T03:04:35.978Z" agent="5.0 (Macintosh; Intel Mac OS X 10_15_7) AppleWebKit/537.36 (KHTML, like Gecko) Chrome/87.0.4280.88 Safari/537.36" etag="ALIMnpEnphIxq95zfxCf" version="14.0.1" type="github">
  <diagram id="Y395kST1ljCww-TaH8n-" name="Page-1">
    <mxGraphModel dx="1426" dy="844" grid="1" gridSize="10" guides="1" tooltips="1" connect="1" arrows="1" fold="1" page="1" pageScale="1" pageWidth="1169" pageHeight="827" math="0" shadow="0">
      <root>
        <mxCell id="0" />
        <mxCell id="1" parent="0" />
      </root>
    </mxGraphModel>
  </diagram>
</mxfile>
